# xmcd CD database file
#
# Track frame offsets:
#	150
#	21225
#	36769
#	58699
#	81185
#	106965
#	117723
#	140442
#	158135
#	167533
#	181400
#
# Disc length: 2564 seconds
#
# Revision: 1
# Processed by: cddbd v1.5.1PL0 Copyright (c) Steve Scherf et al.
# Submitted via: CDex 1.51
#
DISCID=900a020b
DTITLE=evi and das tier - my room
DYEAR=2003
DGENRE=Blues
TTITLE0=Come into my room
TTITLE1=Jungle fever
TTITLE2=Fumblin' with the blues
TTITLE3=Please call me, baby
TTITLE4=Gotta have my baby back
TTITLE5=Solitude
TTITLE6=III wind
TTITLE7=When the moon
TTITLE8=Can't help falling in love
TTITLE9=I put a spell on you
TTITLE10=Everytime we say goodbye
EXTD=YEAR: 2003
EXTT0=
EXTT1=
EXTT2=
EXTT3=
EXTT4=
EXTT5=
EXTT6=
EXTT7=
EXTT8=
EXTT9=
EXTT10=
PLAYORDER=
